# xmcd CD database file
#
# Track frame offsets:
#	150
#	34587
#	57140
#	79492
#	97782
#	117967
#	128502
#	161105
#	205966
#
# Disc length: 3028 seconds
#
# Revision: 0
# Processed by: cddbd v1.5.2PL0 Copyright (c) Steve Scherf et al.
# Submitted via: CDex 1.70beta2
#
DISCID=6e0bd209
DTITLE=Gruvoria  - Dirty Fuel
DYEAR=1900
DGENRE=Jazz
TTITLE0=Good Life
TTITLE1=Healthy Mother
TTITLE2=Gasoline
TTITLE3=Pollo Quadrado
TTITLE4=New Yorkl City
TTITLE5=Judo Chop
TTITLE6=Good Touch/Bad Touch
TTITLE7=Lydia's
TTITLE8=***
EXTD=
EXTT0=
EXTT1=
EXTT2=
EXTT3=
EXTT4=
EXTT5=
EXTT6=
EXTT7=
EXTT8=
PLAYORDER=
